<?xml version="1.0" encoding="UTF-8" standalone="no"?>
<!-- Created with Inkscape (http://www.inkscape.org/) -->

<svg
   xmlns:dc="http://purl.org/dc/elements/1.1/"
   xmlns:cc="http://creativecommons.org/ns#"
   xmlns:rdf="http://www.w3.org/1999/02/22-rdf-syntax-ns#"
   xmlns:svg="http://www.w3.org/2000/svg"
   xmlns="http://www.w3.org/2000/svg"
   xmlns:sodipodi="http://sodipodi.sourceforge.net/DTD/sodipodi-0.dtd"
   xmlns:inkscape="http://www.inkscape.org/namespaces/inkscape"
   width="210mm"
   height="297mm"
   viewBox="0 0 744.09448819 1052.3622047"
   id="svg4163"
   version="1.1"
   inkscape:version="0.91 r13725"
   sodipodi:docname="laser-bracket.svg">
  <title
     id="title4261">laser-bracket</title>
  <defs
     id="defs4165" />
  <sodipodi:namedview
     id="base"
     pagecolor="#ffffff"
     bordercolor="#666666"
     borderopacity="1.0"
     inkscape:pageopacity="0.0"
     inkscape:pageshadow="2"
     inkscape:zoom="0.70710678"
     inkscape:cx="102.09565"
     inkscape:cy="527.84506"
     inkscape:document-units="px"
     inkscape:current-layer="layer1"
     showgrid="true"
     inkscape:window-width="1600"
     inkscape:window-height="876"
     inkscape:window-x="0"
     inkscape:window-y="24"
     inkscape:window-maximized="1">
    <inkscape:grid
       type="xygrid"
       id="grid4943" />
  </sodipodi:namedview>
  <metadata
     id="metadata4168">
    <rdf:RDF>
      <cc:Work
         rdf:about="">
        <dc:format>image/svg+xml</dc:format>
        <dc:type
           rdf:resource="http://purl.org/dc/dcmitype/StillImage" />
        <dc:title>laser-bracket</dc:title>
        <dc:date>2018-04-17</dc:date>
        <dc:creator>
          <cc:Agent>
            <dc:title>glebite</dc:title>
          </cc:Agent>
        </dc:creator>
        <dc:rights>
          <cc:Agent>
            <dc:title>meh - whatever</dc:title>
          </cc:Agent>
        </dc:rights>
        <cc:license
           rdf:resource="http://creativecommons.org/licenses/by-nc/3.0/" />
      </cc:Work>
      <cc:License
         rdf:about="http://creativecommons.org/licenses/by-nc/3.0/">
        <cc:permits
           rdf:resource="http://creativecommons.org/ns#Reproduction" />
        <cc:permits
           rdf:resource="http://creativecommons.org/ns#Distribution" />
        <cc:requires
           rdf:resource="http://creativecommons.org/ns#Notice" />
        <cc:requires
           rdf:resource="http://creativecommons.org/ns#Attribution" />
        <cc:prohibits
           rdf:resource="http://creativecommons.org/ns#CommercialUse" />
        <cc:permits
           rdf:resource="http://creativecommons.org/ns#DerivativeWorks" />
      </cc:License>
    </rdf:RDF>
  </metadata>
  <g
     inkscape:label="Layer 1"
     inkscape:groupmode="layer"
     id="layer1">
    <rect
       style="fill:none;stroke-width:0.09;stroke-miterlimit:4;stroke-dasharray:none"
       id="rect4713"
       width="281"
       height="169"
       x="48.343147"
       y="101.4871" />
    <rect
       style="fill:none;stroke-width:0.09;stroke-miterlimit:4;stroke-dasharray:none"
       id="rect4715"
       width="45"
       height="60"
       x="31.343145"
       y="95.487099" />
    <rect
       style="fill:none;stroke-width:0.09;stroke-miterlimit:4;stroke-dasharray:none"
       id="rect4717"
       width="49"
       height="84"
       x="116.33096"
       y="90.374397" />
    <rect
       style="fill:none;stroke-width:0.09;stroke-miterlimit:4;stroke-dasharray:none"
       id="rect4719"
       width="110"
       height="20"
       x="207.34314"
       y="169.48709" />
    <rect
       style="fill:none;stroke-width:0.09;stroke-miterlimit:4;stroke-dasharray:none"
       id="rect4721"
       width="272"
       height="196"
       x="-96"
       y="-44.637794" />
    <path
       style="fill:none;stroke:#000000;stroke-width:0.09;stroke-miterlimit:4;stroke-dasharray:none;stroke-opacity:1"
       d="M 53.689453 919.25781 L 53.689453 928.67578 L 18.044922 928.67578 L 18.044922 1034.3164 L 53.689453 1034.3164 L 53.689453 1043.7344 L 88.042969 1043.7344 L 88.042969 1034.3164 L 124.55664 1034.3164 L 124.55664 1043.7344 L 158.9082 1043.7344 L 158.9082 1034.3164 L 194.55273 1034.3164 L 194.55273 928.67578 L 158.9082 928.67578 L 158.9082 919.25781 L 124.55664 919.25781 L 124.55664 928.67578 L 88.042969 928.67578 L 88.042969 919.25781 L 53.689453 919.25781 z "
       id="rect4723" />
    <circle
       style="fill:none;stroke:#000000;stroke-width:0.09;stroke-miterlimit:4;stroke-dasharray:none;stroke-opacity:1"
       id="path4725"
       cx="51.377953"
       cy="983.2677"
       r="15.164666" />
    <rect
       style="fill:none;stroke:#000000;stroke-width:0.09;stroke-miterlimit:4;stroke-dasharray:none;stroke-opacity:1"
       id="rect4723-6-5"
       width="176.50813"
       height="105.64201"
       x="214.93834"
       y="791.86353" />
    <rect
       style="fill:none;stroke:#000000;stroke-width:0.09;stroke-miterlimit:4;stroke-dasharray:none;stroke-opacity:1"
       id="rect4727-3-2-6-0"
       width="34.352325"
       height="9.5491753"
       x="964.31989"
       y="-100.44388"
       transform="matrix(0,1,-1,0,0,0)" />
    <path
       style="fill:none;stroke:#000000;stroke-width:0.09;stroke-miterlimit:4;stroke-dasharray:none;stroke-opacity:1"
       d="M 89.123047 812.95703 L 89.123047 822.49219 L 53.595703 822.49219 L 53.595703 892.4668 L 89.123047 892.4668 L 89.123047 901.00195 L 123.47461 901.00195 L 123.47461 892.4668 L 159.98828 892.4668 L 159.98828 901.00195 L 194.3418 901.00195 L 194.3418 892.4668 L 194.43555 892.4668 L 194.43555 822.49219 L 194.3418 822.49219 L 194.3418 813.45703 L 159.98828 813.45703 L 159.98828 822.49219 L 123.47461 822.49219 L 123.47461 812.95703 L 89.123047 812.95703 z "
       id="rect5087" />
    <path
       inkscape:connector-curvature="0"
       style="fill:none;stroke:#000000;stroke-width:0.09;stroke-miterlimit:4;stroke-dasharray:none;stroke-opacity:1"
       d="m 84.005863,689.11328 0,9.36328 -35.5293,0 0,69.97656 35.5293,0 0,8.70508 34.351557,0 0,-8.70508 35.52735,0 0,-69.97656 -35.52735,0 0,-9.36328 -34.351557,0 z"
       id="rect4727-3-2-7-3" />
    <ellipse
       style="fill:none;stroke:#000000;stroke-width:0.09;stroke-miterlimit:4;stroke-dasharray:none;stroke-opacity:1"
       id="path4941-6"
       cx="101.95277"
       cy="730.69293"
       rx="18.891521"
       ry="18.891523" />
    <path
       inkscape:connector-curvature="0"
       style="fill:none;stroke:#000000;stroke-width:0.09;stroke-miterlimit:4;stroke-dasharray:none;stroke-opacity:1"
       d="m 242.18945,918.75781 0,9.41797 -35.64453,0 0,105.64062 35.64453,0 0,9.418 34.35352,0 0,-9.418 36.51367,0 0,9.418 34.35156,0 0,-9.418 35.64453,0 0,-105.64062 -35.64453,0 0,-9.41797 -34.35156,0 0,9.41797 -36.51367,0 0,-9.41797 -34.35352,0 z"
       id="rect4723-1" />
    <circle
       style="fill:none;stroke:#000000;stroke-width:0.09;stroke-miterlimit:4;stroke-dasharray:none;stroke-opacity:1"
       id="path4725-2"
       cx="239.87796"
       cy="982.7677"
       r="15.164666" />
    <rect
       style="fill:none;stroke:#000000;stroke-width:0.09;stroke-miterlimit:4;stroke-dasharray:none;stroke-opacity:1"
       id="rect4727-3-2-6-0-9"
       width="34.352325"
       height="9.5491753"
       x="963.81989"
       y="-288.94388"
       transform="matrix(0,1,-1,0,0,0)" />
    <path
       inkscape:connector-curvature="0"
       style="fill:none;stroke:#000000;stroke-width:0.09;stroke-miterlimit:4;stroke-dasharray:none;stroke-opacity:1"
       d="m 53.897606,532.39488 0,9.41797 -35.644533,0 0,105.64062 35.644533,0 0,9.418 34.353516,0 0,-9.418 36.513678,0 0,9.418 34.35156,0 0,-9.418 35.64453,0 0,-105.64062 -35.64453,0 0,-9.41797 -34.35156,0 0,9.41797 -36.513678,0 0,-9.41797 -34.353516,0 z"
       id="rect4723-3" />
    <circle
       style="fill:none;stroke:#000000;stroke-width:0.09;stroke-miterlimit:4;stroke-dasharray:none;stroke-opacity:1"
       id="path4725-1"
       cx="51.586105"
       cy="596.40479"
       r="15.164666" />
    <rect
       style="fill:none;stroke:#000000;stroke-width:0.09;stroke-miterlimit:4;stroke-dasharray:none;stroke-opacity:1"
       id="rect4723-6-5-9"
       width="176.50813"
       height="105.64201"
       x="215.1465"
       y="405.00061" />
    <rect
       style="fill:none;stroke:#000000;stroke-width:0.09;stroke-miterlimit:4;stroke-dasharray:none;stroke-opacity:1"
       id="rect4727-3-2-6-0-7"
       width="34.352325"
       height="9.5491753"
       x="577.45697"
       y="-100.65203"
       transform="matrix(0,1,-1,0,0,0)" />
    <path
       inkscape:connector-curvature="0"
       style="fill:none;stroke:#000000;stroke-width:0.09;stroke-miterlimit:4;stroke-dasharray:none;stroke-opacity:1"
       d="m 89.3312,426.0941 0,9.53516 -35.527344,0 0,69.97461 35.527344,0 0,8.53515 34.35157,0 0,-8.53515 36.51367,0 0,8.53515 34.35352,0 0,-8.53515 0.0937,0 0,-69.97461 -0.0937,0 0,-9.03516 -34.35352,0 0,9.03516 -36.51367,0 0,-9.53516 -34.35157,0 z"
       id="rect5087-4" />
    <path
       inkscape:connector-curvature="0"
       style="fill:none;stroke:#000000;stroke-width:0.09;stroke-miterlimit:4;stroke-dasharray:none;stroke-opacity:1"
       d="m 84.214016,302.25036 0,9.36328 -35.5293,0 0,69.97656 35.5293,0 0,8.70508 34.351564,0 0,-8.70508 35.52735,0 0,-69.97656 -35.52735,0 0,-9.36328 -34.351564,0 z"
       id="rect4727-3-2-7-3-5" />
    <ellipse
       style="fill:none;stroke:#000000;stroke-width:0.09;stroke-miterlimit:4;stroke-dasharray:none;stroke-opacity:1"
       id="path4941-6-0"
       cx="102.16092"
       cy="343.83002"
       rx="18.891521"
       ry="18.891523" />
    <path
       inkscape:connector-curvature="0"
       style="fill:none;stroke:#000000;stroke-width:0.09;stroke-miterlimit:4;stroke-dasharray:none;stroke-opacity:1"
       d="m 242.3976,531.89488 0,9.41797 -35.64452,0 0,105.64062 35.64452,0 0,9.418 34.35352,0 0,-9.418 36.51367,0 0,9.418 34.35156,0 0,-9.418 35.64453,0 0,-105.64062 -35.64453,0 0,-9.41797 -34.35156,0 0,9.41797 -36.51367,0 0,-9.41797 -34.35352,0 z"
       id="rect4723-1-3" />
    <circle
       style="fill:none;stroke:#000000;stroke-width:0.09;stroke-miterlimit:4;stroke-dasharray:none;stroke-opacity:1"
       id="path4725-2-6"
       cx="240.08612"
       cy="595.90479"
       r="15.164666" />
    <rect
       style="fill:none;stroke:#000000;stroke-width:0.09;stroke-miterlimit:4;stroke-dasharray:none;stroke-opacity:1"
       id="rect4727-3-2-6-0-9-1"
       width="34.352325"
       height="9.5491753"
       x="576.95697"
       y="-289.15204"
       transform="matrix(0,1,-1,0,0,0)" />
    <path
       inkscape:connector-curvature="0"
       style="fill:none;stroke:#000000;stroke-width:0.09;stroke-miterlimit:4;stroke-dasharray:none;stroke-opacity:1"
       d="m 229.3312,286.0941 0,9.53516 -35.52734,0 0,69.97461 35.52734,0 0,8.53515 34.35157,0 0,-8.53515 36.51367,0 0,8.53515 34.35352,0 0,-8.53515 0.0937,0 0,-69.97461 -0.0937,0 0,-9.03516 -34.35352,0 0,9.03516 -36.51367,0 0,-9.53516 -34.35157,0 z"
       id="rect5087-4-0" />
    <path
       inkscape:connector-curvature="0"
       style="fill:none;stroke:#000000;stroke-width:0.09;stroke-miterlimit:4;stroke-dasharray:none;stroke-opacity:1"
       d="m 220.64491,683.06466 0,9.53516 -35.52734,0 0,69.97461 35.52734,0 0,8.53515 34.35157,0 0,-8.53515 36.51367,0 0,8.53515 34.35352,0 0,-8.53515 0.0937,0 0,-69.97461 -0.0937,0 0,-9.03516 -34.35352,0 0,9.03516 -36.51367,0 0,-9.53516 -34.35157,0 z"
       id="rect5087-4-6" />
  </g>
</svg>
